<?xml version="1.0" encoding="UTF-8"?>
<svg width="100px" height="100px" viewBox="0 0 100 100" version="1.1" xmlns="http://www.w3.org/2000/svg" xmlns:xlink="http://www.w3.org/1999/xlink">
  <title>icon-mask</title>
  <g id="Icons" stroke="none" stroke-width="1" fill="none" fill-rule="evenodd">
    <g id="icon-mask" fill="#D5D5D5">
      <path d="M50,100 C22.3857625,100 0,77.6142375 0,50 C0,22.3857625 22.3857625,0 50,0 C77.6142375,0 100,22.3857625 100,50 C100,77.6142375 77.6142375,100 50,100 Z M70.3098801,49.2237392 L70.305794,49.2237392 C70.305794,42.8536005 65.288135,37.5274453 58.9200392,37.3435734 C55.3464425,37.240467 51.920684,38.7717172 49.6140796,41.5031637 C47.4689078,38.969818 44.2674942,37.3497025 40.6860788,37.3497025 C34.2301332,37.3497025 29,42.5696206 29,49.0255662 L29,63.9130586 L34.4385213,63.9130586 L34.4385213,49.2237392 C34.4385213,45.7894213 37.2476749,42.8965039 40.6819928,42.9291922 C44.0466955,42.975715 46.7579857,45.7015235 46.7865389,49.0664266 L46.7865389,63.9110156 L52.3762437,63.9110156 L52.3762437,49.1930939 C52.3762437,45.7689911 55.1792682,42.8801597 58.605414,42.908762 C61.9678444,42.9473698 64.6845306,45.663149 64.7242613,49.0255662 L64.7242613,63.9130586 L70.3098801,63.9130586 L70.3098801,49.2237392 Z" id="Combined-Shape"></path>
    </g>
  </g>
</svg>